<svg xmlns="http://www.w3.org/2000/svg" viewBox="0 0 512 512"><path d="M280,145.16c-4.79-0.57-9.35-4.25-11.32-9.44c-2.79-7.37,2.59-14.97,3.4-16.07c3.52-1.85,7.55-4.3,11.72-7.57 c5.87-4.59,10.21-9.35,13.32-13.32c1.9-3.75,6.12-13.42,3.96-25.44C297.84,55.29,282.85,46.55,280.2,45 c-1.79-1.04-10.88-6.18-23.76-6c-12.22,0.17-20.87,5.04-23.28,6.48c-3.43,2.05-18.81,11.26-21.18,29.34 c-1.68,12.78,4.1,22.71,6.3,26.1c3.38,5.22,7.96,8.65,11.28,11.28c4.83,3.82,9.35,6.35,12.66,7.98c4.09,4.09,5.43,10.19,3.42,15.54 c-2.11,5.62-7.55,9.4-13.64,9.46c0,0.03-0.01,0.07-0.04,0.1c-0.02,0.03-0.06,0.05-0.1,0.05c-12.86,1.38-25.4,3.85-37.52,7.31 c-7.28,2.08-14.41,4.52-21.37,7.3c-6.26,2.5-12.39,5.28-18.36,8.31c-7.15,3.64-14.08,7.64-20.77,12 c-6.27,4.09-12.33,8.48-18.14,13.16c-5.55,4.46-10.88,9.18-15.98,14.15c-4.99,4.86-9.76,9.95-14.28,15.26 c-4.59,5.39-8.93,10.99-13,16.8c-3.85,5.5-7.47,11.17-10.82,17.01c-3.75,6.53-7.18,13.27-10.28,20.19 c-2.95,6.61-5.59,13.39-7.9,20.32c-2.42,7.26-4.48,14.69-6.16,22.26c-1.18,5.33-2.17,10.73-2.96,16.19 c-0.97,6.7-1.65,13.5-2.01,20.38c-0.25,4.71-0.28,8.16-0.32,11.88c-0.05,6.09,0.01,14.3,0.52,24.13c0.78-3.47,2.64-9.41,7.48-14.98 c2.11-2.43,4.3-4.23,6.2-5.54c2.54-1.1,5.5-2.09,8.87-2.72c2.44-0.46,4.29-0.57,6.93-0.74c4.23-0.27,7.56-0.14,9.31-0.04 c0.34,0.02,0.57,0.03,0.69,0.04c10.23,0.62,360.25-0.01,368.86,0.04c0.09,0,0.62,0,1.35,0c5.9-0.06,11.78-0.12,17.64-2.15 c2.39-0.83,6.03-2.09,9.54-5.4c3.52-3.32,5.03-6.92,5.94-9.18c2.58-6.37,2.42-11.91,2.25-16.39c-0.19-4.98-1.48-10.16-4.04-20.54 c-1.72-6.99-3.76-13.85-6.12-20.56c-2.28-6.5-4.86-12.86-7.71-19.07c-3.16-6.88-6.66-13.58-10.47-20.07 c-3.37-5.73-6.99-11.3-10.84-16.69c-3.88-5.43-8-10.69-12.34-15.74c-4.83-5.62-9.93-11.01-15.28-16.12 c-4.5-4.3-9.17-8.41-14.02-12.33c-5.02-4.06-10.22-7.91-15.58-11.53c-5.49-3.71-11.16-7.18-16.99-10.4 c-6.19-3.42-12.56-6.56-19.09-9.39c-5.19-2.25-10.48-4.32-15.87-6.18c-2.04-0.7-4.09-1.38-6.15-2.03 c-1.54-0.48-8.13-2.53-16.28-4.44C296.07,147.31,286.35,145.92,280,145.16z M459.71,400H53.03C41.42,400,32,410.7,32,423.1 c0,14.2,9.42,24.9,20.25,24.9h406.67c11.61,0,21.03-10.75,21.03-23.1C480.74,410.7,471.36,400,459.71,400z M-12,379 M20.64,391.98 M690.6,179.4 M288.7,80.28c0,16.7-14.22,30.24-31.77,30.24s-31.77-13.54-31.77-30.24s14.22-30.24,31.77-30.24 S288.7,63.58,288.7,80.28z"/></svg>
