<svg xmlns="http://www.w3.org/2000/svg" viewBox="0 0 512 512"><path d="M280,145.2c-4.8-0.6-9.4-4.3-11.3-9.4c-1.6-4.1-1-9.5,1.8-13.6c1.3-1.9,2.9-3.1,4-3.8c2.9-1.7,6.1-3.7,9.3-6.3 c5.8-4.5,10.2-9.3,13.3-13.3c1.9-3.8,6.1-13.4,4-25.4c-3.2-18-18.2-26.8-20.9-28.3c-1.8-1-10.9-6.2-23.8-6 c-12.2,0.2-20.9,5-23.3,6.5c-3.4,2-18.8,11.3-21.2,29.3c-1.7,12.8,4.1,22.7,6.3,26.1c3.4,5.2,8.1,8.7,11.3,11.3 c4.6,3.6,8.8,6.1,12,7.7c0.5,0.4,1.2,0.9,1.8,1.6c3.2,3.7,4,9.5,2.3,14.2c-2,5.4-7.4,9.1-13.6,9.5c0,0,0,0.1,0,0.1c0,0-0.1,0-0.1,0 c-12.9,1.4-25.4,3.9-37.5,7.3c-7.3,2.1-14.4,4.5-21.4,7.3c-6.3,2.5-12.4,5.3-18.4,8.3c-7.1,3.6-14.1,7.6-20.8,12 c-6.3,4.1-12.3,8.5-18.1,13.2c-5.6,4.5-10.9,9.2-16,14.1c-5,4.9-9.8,10-14.3,15.3c-4.6,5.4-8.9,11-13,16.8 c-3.8,5.5-7.5,11.2-10.8,17c-3.8,6.5-7.2,13.3-10.3,20.2c-3,6.6-5.6,13.4-7.9,20.3c-2.4,7.3-4.5,14.7-6.2,22.3 c-1.2,5.3-2.2,10.7-3,16.2c-1,6.7-1.7,13.5-2,20.4c-0.3,4.7-0.3,8.2-0.3,11.9c0,6.1,0,14.3,0.5,24.1c0.8-3.5,2.6-9.4,7.5-15 c2.1-2.4,4.3-4.2,6.2-5.5c2.5-1.1,5.5-2.1,8.9-2.7c2.4-0.5,4.3-0.6,6.9-0.7c4.2-0.3,7.6-0.1,9.3,0c0.3,0,0.6,0,0.7,0 c10.2,0.6,360.3,0,368.9,0c0.1,0,0.6,0,1.4,0c5.9-0.1,11.8-0.1,17.6-2.1c2.4-0.8,6-2.1,9.5-5.4c3.5-3.3,5-6.9,5.9-9.2 c2.6-6.4,2.4-11.9,2.3-16.4c-0.2-5-1.5-10.2-4-20.5c-1.7-7-3.8-13.9-6.1-20.6c-2.3-6.5-4.9-12.9-7.7-19.1 c-3.2-6.9-6.7-13.6-10.5-20.1c-3.4-5.7-7-11.3-10.8-16.7c-3.9-5.4-8-10.7-12.3-15.7c-4.8-5.6-9.9-11-15.3-16.1 c-4.5-4.3-9.2-8.4-14-12.3c-5-4.1-10.2-7.9-15.6-11.5c-5.5-3.7-11.2-7.2-17-10.4c-6.2-3.4-12.6-6.6-19.1-9.4 c-5.2-2.3-10.5-4.3-15.9-6.2c-2-0.7-4.1-1.4-6.1-2c-1.5-0.5-8.1-2.5-16.3-4.4C296.1,147.3,286.4,145.9,280,145.2z M459.7,400H53 c-11.6,0-21,10.7-21,23.1c0,14.2,9.4,24.9,20.3,24.9h406.7c11.6,0,21-10.8,21-23.1C480.7,410.7,471.4,400,459.7,400z M288.7,80.3 c0,16.7-14.2,30.2-31.8,30.2S225.2,97,225.2,80.3S239.4,50,256.9,50S288.7,63.6,288.7,80.3z"/></svg>
