<?xml version="1.0" encoding="utf-8"?>
<!-- Generator: Adobe Illustrator 24.2.3, SVG Export Plug-In . SVG Version: 6.00 Build 0)  -->
<svg version="1.1" id="Layer_1" xmlns="http://www.w3.org/2000/svg" xmlns:xlink="http://www.w3.org/1999/xlink" x="0px" y="0px"
	 viewBox="0 0 1920 1920" style="enable-background:new 0 0 1920 1920;" xml:space="preserve">
<style type="text/css">
	.st0{fill:#FFFFFF;stroke:#000000;stroke-miterlimit:10;}
</style>
<path class="st0" d="M1220.97,274.5c-344.13,0-628.46,258.24-672.97,593.1c-0.03,0.26,0.1,2.65-0.11,5.85
	c0,0-1.51,23.53-19.83,45.05c-25.06,29.44-105.99,18.59-147.7,13c-52.92-7.09-79.38-10.64-110.03-26
	c-43.52-21.81-58-46.43-101.11-55c-25.99-5.17-48.85-1.81-64.43,2c-47.33,13.87-80.34,57.13-81.29,106
	c-0.99,51.18,33.39,97.34,83.27,111c16.52,1.13,41.12,1.11,69.39-6c39.59-9.95,55.97-26.16,94.17-44
	c46.08-21.52,85.8-27.61,109.04-31c29.87-4.36,125.74-18.33,150.68,22c0,0,0.38,0.62,18.18,40.1c0.1,2.08,0.12,3.32,0.14,3.52
	c45.68,333.54,329.41,590.38,672.6,590.38c375.02,0,679.03-306.68,679.03-685S1595.99,274.5,1220.97,274.5z M1220.97,1541.75
	c-318.76,0-577.17-260.68-577.17-582.25s258.41-582.25,577.17-582.25s577.18,260.68,577.18,582.25S1539.74,1541.75,1220.97,1541.75z
	"/>
</svg>
