<?xml version="1.0" encoding="utf-8"?>
<!-- Generator: Adobe Illustrator 24.2.3, SVG Export Plug-In . SVG Version: 6.00 Build 0)  -->
<svg version="1.1" id="Layer_1" xmlns="http://www.w3.org/2000/svg" xmlns:xlink="http://www.w3.org/1999/xlink" x="0px" y="0px"
	 viewBox="0 0 1920 1920" style="enable-background:new 0 0 1920 1920;" xml:space="preserve">
<style type="text/css">
	.st0{fill:#FFFFFF;}
</style>
<path class="st0" d="M1838.58,654.9c-167.22-339.35-557.05-489.16-870.7-334.6c-15.18,7.48-29.9,15.54-44.15,24.14
	C724.73,443.15,580.62,637.25,550,867.6c-0.03,0.26,0.1,2.65-0.11,5.85c0,0-1.51,23.53-19.83,45.05
	c-25.06,29.44-105.99,18.59-147.7,13c-52.92-7.09-79.38-10.64-110.03-26c-43.52-21.81-58-46.43-101.11-55
	c-25.99-5.17-48.85-1.81-64.43,2c-47.33,13.87-80.34,57.13-81.29,106c-0.99,51.18,33.39,97.34,83.27,111
	c16.52,1.13,41.12,1.11,69.39-6c39.59-9.95,55.97-26.16,94.17-44c46.08-21.52,85.8-27.61,109.04-31
	c29.87-4.36,125.74-18.33,150.68,22c0.82,1.71,1.63,3.46,2.42,5.25c5.24,11.84,8.94,23.37,11.54,34.25
	c6.72,28.21,12.3,36.14,20.97,73.93c4.53,19.73,9.62,46.17,13.03,78.07c-1.79,14.32-7.02,37.13-24.79,54.08
	c-26.32,25.11-65.62,23.36-103.52,22.03c-46.04-1.62-69.03-17.74-108.88-7.66c-24.03,6.08-41.66,18.51-53.01,28.35
	c-33.46,31.95-41.94,84.36-21.13,128.58c21.46,45.61,69.44,72.71,116.5,65.61c1.51-0.23,2.96-0.66,4.36-1.24
	c14.18-5.93,33.74-15.95,53.23-33.09c28.72-25.25,35.25-46.53,59.31-78.28c47.62-62.81,66.57-70.43,77.5-72.75
	c19.92-4.22,37.95,1.41,49.43,6.38c12.24,10.22,27.19,24.58,41.69,44.11c2.37,3.19,4,5.55,4.31,5.99
	c73.69,105.55,193.04,179.49,193.04,179.49c35.45,21.96,170.12,100.91,354.93,100.91c118.02,0,229-30.38,325.69-83.8
	c8.3-3.63,16.56-7.45,24.77-11.5C1887.08,1394.64,2005.8,994.25,1838.58,654.9z M1486.84,1477.32
	c-285.93,140.9-632.96,21.28-775.09-267.17c-102.85-208.73-70.23-448.66,63.99-618.73c105.84-130.72,266.87-214.18,447.23-214.18
	c318.76,0,577.17,260.68,577.17,582.25c0,223.32-124.63,417.27-307.54,514.94C1490.69,1475.41,1488.77,1476.37,1486.84,1477.32z"/>
<path class="st0" d="M1716.99,1018.91c-15.68,90.25-78.43,175.38-108.06,165.72c-12.88-4.2-16.88-27.14-21.86-55.63
	c-2.9-16.57-6.83-48.71,7.7-131.54c15.74-89.71,32.52-121.34,43.89-139.27c12.99-20.49,21.11-33.29,31.65-33.19
	C1699.76,825.26,1733.08,926.33,1716.99,1018.91z"/>
</svg>
